<svg xmlns="http://www.w3.org/2000/svg" width="215" height="70"><g fill="none"><path fill="#FFF" d="M55.063 55.938V2.812H5.624c3.344 7.813 4.313 19.082 1.644 33.126a73.125 73.125 0 0 1-5.356 16.106C.813 54.463 0 55.938 0 55.938h55.063z"/><path fill="#EE7623" d="M55.063 55.938V2.812h-34.12C35.232 6.825 45.32 14.645 45.539 24.395 46.114 48.62 2.857 55.939 2.857 55.939h52.206zM11.169 3.294a20.244 20.244 0 0 1 9.456 10.756A22.031 22.031 0 0 1 22 19.363c4.396.504 8.755 1.29 13.05 2.356v-.038C33.125 12.725 25 5.725 11.169 3.294zm-5.088.625A47.656 47.656 0 0 1 8.75 18.344c3.9.2 7.438.412 10.788.775a20.881 20.881 0 0 0-2.12-6.319A16.875 16.875 0 0 0 6.082 3.937V3.92zM1.913 52.062A33.369 33.369 0 0 0 16.1 37.925c-5.475.544-9.375.688-9.375.675a81.081 81.081 0 0 1-4.813 13.431v.032zm15.356-16.575a30 30 0 0 0 2.575-14.018A186.66 186.66 0 0 0 8.806 20.6 84.706 84.706 0 0 1 7.425 35c-.087.513-.1.625-.206 1.131h.668c3.338-.125 6.026-.287 9.376-.662l.006.018zM6.2 52.281c11.788-1.7 21.512-8.868 26.213-16.937a125.281 125.281 0 0 1-13.475 2.218A33.888 33.888 0 0 1 6.2 52.282zm35.269-20a29.375 29.375 0 0 1-5.9 2.225 31.6 31.6 0 0 1-9.375 11.25c7.175-3.837 12.625-8.456 15.25-13.525l.025.05zm1.425-4.156c.056-1.087-1.831-2.231-5.119-3.288h-.044a21.119 21.119 0 0 1-1.093 7.032c3.8-1.219 6.193-2.5 6.25-3.75l.006.006zm-5.356-5.7v.05a22.275 22.275 0 0 1 5.625 2.5c0-.144 0-.269-.038-.394-.456-6.587-5.625-12.218-13.75-16.162C33.962 12.4 36.8 17.05 37.538 22.4v.025zm-15.32-.65a33.844 33.844 0 0 1-2.274 13.419 114.9 114.9 0 0 0 13.837-2.556 18.375 18.375 0 0 0 1.625-8.494 104.6 104.6 0 0 0-13.181-2.375l-.006.006z"/><path fill="#00416B" d="M74.006 8.881c0 2.681-1.668 4.6-4.025 4.6h-3.694V4.456h4.02c2.137 0 3.7 1.875 3.7 4.425zm-7.719 6.25h4.057c2.825 0 4.894 2.175 4.894 5.181 0 3.007-1.876 4.782-4.894 4.782h-4.056V15.13zM77.375 8.75a5.956 5.956 0 0 0-5.981-5.944H60.375v1.325h2.75v21.25h-2.75v1.338h11.706c3.7 0 6.45-2.681 6.45-6.25a6.037 6.037 0 0 0-3.55-5.625 7.988 7.988 0 0 0-2.931-.763c2.931-.25 5.325-2.643 5.325-5.362v.031zM90.55 25.369h-3.481v-9.644c1.993-2.425 2.644-3.044 3.293-3.044.363 0 .876.332 1.6 1.019l2.1-2.537-1.124-.982a1.419 1.419 0 0 0-1.013-.325c-1.306 0-2.25.8-4.856 4.132V9.93h-.657l-5.218 1.413v.975h3.181v13.05h-2.756v1.337h8.956l-.025-1.337zm15.7-9.388h-8.406c.325-2.825 2.175-4.6 4.819-4.6a3.525 3.525 0 0 1 3.587 3.75v.85zm2.969 1.45v-.981c0-3.912-2.681-6.594-6.594-6.594-4.494 0-7.794 3.694-7.794 8.75s3.294 8.575 7.869 8.575c2.1 0 3.369-.437 6.087-1.994l-.662-1.343c-2.031 1.306-3.013 1.668-4.456 1.668-3.444 0-5.838-3.125-5.838-7.68v-.4h11.388zm14.531 5.363c-.469.362-.831.625-1.05.831-1.25.981-1.813 1.2-2.938 1.2-2.968 0-4.743-2.431-4.743-6.488 0-4.168 2.356-6.956 5.868-6.956 2.138 0 2.863.756 2.863 3.006v8.407zm5.906 2.9v-1.019h-3.125V0h-.687l-5.219 1.413v.98h3.125v8.37a5.881 5.881 0 0 0-3.263-.907c-4.743 0-8.587 4.025-8.587 9.025 0 4.638 2.975 8.3 6.744 8.3 1.875 0 3.125-.656 5.106-2.65v2.538h.688l5.218-1.375zm11.419-2.569c-1.594 1.413-2.537 1.925-3.7 1.925a2.344 2.344 0 0 1-2.5-2.5v-1.813l6.2-1.443v3.831zm5.506 2.9V25h-2.787V13.844c0-2.394-2.107-3.988-5.294-3.988-3.294 0-5.725 1.556-5.725 3.663-.017.36.084.715.287 1.012l3.232-.944v-1.712a4.481 4.481 0 0 1 2.243-.625 2.45 2.45 0 0 1 2.538 2.5v4.1l-6.2 1.412a3.781 3.781 0 0 0-2.931 3.75 4.125 4.125 0 0 0 4.375 4.17c1.919 0 3.294-.763 4.819-2.65v.362c0 1.344.624 2.137 1.774 2.137a5.256 5.256 0 0 0 1.25-.25l2.42-.756zm-62.206 5.994h-7.294v1.343H79.8v13.663c0 4.375-2.787 7.281-6.919 7.281-4.025 0-6.594-2.862-6.594-7.243v-13.7H69v-1.344h-8.625v1.343h2.75v14.825c0 4.744 3.881 8.226 9.138 8.226a10.906 10.906 0 0 0 5.03-1.25c3.013-1.632 4.376-4.138 4.376-8.013V33.362h2.706V32.02zM104.6 54.6h-2.725V43.619c0-2.794-1.669-4.532-4.375-4.532-2.319 0-3.875.982-6.594 4.132v-4.056h-.625l-5.219 1.412v.975h3.126V54.6h-2.75v1.337h8.224V54.6h-2.725v-9.425c3.157-3.625 4.057-4.313 5.626-4.313 1.568 0 2.568 1.2 2.568 3.125v10.625H96.42v1.325h8.187L104.6 54.6zm10.756 0h-2.75V39.162h-.656l-5.213 1.413v.975h3.15V54.6h-2.756v1.337h8.225zM109.2 32.925a1.875 1.875 0 1 0 3.75 0 1.875 1.875 0 0 0-3.75 0m22.469 6.963h-5.582v1.337h2.425l-4.056 10.331-4.312-10.331h2.537v-1.337h-7.031v1.337l1.519.038 6.344 15.15h.724l5.907-15.188h1.525zm12.012 5.368h-8.412c.331-2.825 2.175-4.6 4.825-4.6a3.525 3.525 0 0 1 3.587 3.75v.85zm2.969 1.407v-.982c0-3.912-2.681-6.593-6.594-6.593-4.494 0-7.794 3.7-7.794 8.75s3.263 8.556 7.863 8.556c2.106 0 3.375-.438 6.094-1.994l-.694-1.344c-2.025 1.306-3.006 1.669-4.456 1.669-3.444 0-5.831-3.125-5.831-7.681v-.4l11.412.019zM158.3 54.6h-3.481v-9.644c1.994-2.425 2.644-3.044 3.3-3.044.362 0 .869.332 1.594 1.02l2.1-2.538-1.12-.981a1.456 1.456 0 0 0-1.018-.325c-1.306 0-2.244.8-4.856 4.13v-4.056h-.625l-5.219 1.413v.975h3.125V54.6h-2.725v1.337h8.95L158.3 54.6zm7.038.362c1.056.975 2.575 1.45 4.606 1.45 3.225 0 5.469-2.03 5.469-4.93 0-2.32-1.12-3.513-4.675-4.926-4.375-1.781-4.638-1.962-4.638-3.518 0-1.557 1.25-2.575 3.125-2.575s3.588 1.162 3.588 2.575c-.01.409-.084.814-.22 1.2h1.557l.875-5.22h-1.563l-.218 1.3a5.75 5.75 0 0 0-3.838-1.25c-3.337 0-5.625 1.92-5.625 4.75 0 2.282 1.25 3.62 4.713 4.963 3.806 1.488 4.819 2.282 4.819 3.75 0 1.469-1.488 2.5-3.482 2.5-2.243 0-4.275-1.375-4.275-2.931v-.981h-1.669v5.131h1.45v-1.288zm21.025-.362h-2.757V39.162h-.65l-5.218 1.413v.975h3.15V54.6h-2.75v1.337h8.225zM180.2 32.925a1.875 1.875 0 1 0 3.75 0 1.875 1.875 0 0 0-3.75 0m16.675 20.513c-1.25.724-1.706.868-2.463.868-1.2 0-1.668-.506-1.668-1.875V41.55h4.494v-1.662h-4.494v-5.113h-2.607v5l-3.156.8v.975h3.156v11.2c0 2.212 1.25 3.513 3.37 3.513 1.337 0 2.062-.325 3.987-1.875l-.619-.95zm17.637-13.55h-5.58v1.362h2.424L207.3 51.581l-4.375-10.331h2.575v-1.362h-7.044v1.362H200l5.869 14.025a15.431 15.431 0 0 1-2.357 4.425c-1.118 1.45-1.812 1.994-3.806 3.125l2.357 2.431c.656-.875 1.125-1.525 1.45-1.962a33.706 33.706 0 0 0 3.362-6.519l6.113-15.525h1.524v-1.362zM68.463 65.906c0 1.625-.963 2.906-2.188 2.906s-2.169-1.3-2.169-2.924c0-1.626.963-2.876 2.169-2.876s2.188 1.282 2.188 2.894m1.25 0a3.413 3.413 0 1 0-3.394 3.525 3.525 3.525 0 0 0 3.394-3.525m6.306-2v-1.612h-.532v.287h-4.512v.531h1.075v5.582h-1.075v.531h3.25v-.531h-1.081v-2.556h1.843v.718h.532v-2h-.532v.707h-1.843v-2.407h2.362v.75zm7.637 2.663h-2.144l1.094-2.532 1.05 2.532zm2.663 2.656v-.531h-.625l-2.644-6.325h-.375l-2.763 6.325h-.537v.531h2.013v-.531h-.82l.688-1.569h2.619l.625 1.569h-.625v.531h2.444zm6.856-4.7a1.875 1.875 0 0 0-2.087-1.944h-3.475v.575h1.075v5.538h-1.076v.531h3.25v-.531h-1.08v-5.538h.843a1.25 1.25 0 0 1 1.356 1.438 1.438 1.438 0 0 1-1.425 1.525 2.831 2.831 0 0 1-.287 0v.456c.206.04.415.058.625.056a2.137 2.137 0 0 0 2.312-2.081m6.888-.025a1.875 1.875 0 0 0-2.088-1.944h-3.475v.575h1.094v5.538H94.55v.531h3.25v-.531h-1.081v-5.538h.831a1.25 1.25 0 0 1 1.356 1.438 1.438 1.438 0 0 1-1.425 1.525 2.831 2.831 0 0 1-.287 0v.456c.206.04.415.058.625.056a2.137 2.137 0 0 0 2.312-2.081m6.563 4.675v-1.45h-.519v.875h-2.412v-5.494h1.075v-.575h-3.25v.575h1.08v5.538h-1.08v.531zm4.731 0v-.531h-1.075v-5.538h1.075v-.575h-3.25v.575h1.081v5.538h-1.081v.531zm7.019 0v-1.337h-.532v.762h-2.443v-2.519h1.837v.725h.532v-2h-.532v.707h-1.837v-2.407h2.356v.75h.519v-1.612h-.531v.287h-4.52v.531h1.082v5.582h-1.081v.531zm7.475-3.306c0 1.556-1.025 2.731-2.363 2.731h-1.118v-5.494h1.137c1.319 0 2.344 1.213 2.344 2.763m1.25 0a3.375 3.375 0 0 0-3.481-3.325h-3.407v.531h1.075v5.581h-1.075v.531h3.406a3.325 3.325 0 0 0 3.482-3.318m8.5 1.581c0-.931-.344-1.394-1.582-2.081l-1.018-.625c-.494-.281-.625-.488-.625-.856 0-.626.444-.97 1.125-.97.43.009.848.139 1.206.376v.718h.531v-1.68h-.531v.362a2.613 2.613 0 0 0-1.313-.331 1.944 1.944 0 0 0-2.056 1.874c0 .85.431 1.357 1.7 1.988s1.582.981 1.582 1.525c0 .544-.52.963-1.25.963a2.663 2.663 0 0 1-1.463-.476V67.5h-.537v1.8h.537v-.375c.49.302 1.05.466 1.625.475a1.956 1.956 0 0 0 2.081-1.875m7.394 1.413V67.6h-.519v.738a3.044 3.044 0 0 1-1.525.475 2.825 2.825 0 0 1-2.75-3.007 2.613 2.613 0 0 1 2.55-2.806 2.65 2.65 0 0 1 1.725.625v.487h.519v-1.73h-.519v.443a3.506 3.506 0 0 0-1.7-.431c-2.243 0-3.806 1.456-3.806 3.525s1.563 3.493 3.75 3.493a5.094 5.094 0 0 0 2.287-.475m4.857.288v-.531h-1.081v-5.538h1.08v-.575h-3.256v.575h1.082v5.538h-1.082v.531zm7.012 0v-1.337h-.531v.762h-2.444v-2.519h1.844v.725h.531v-2h-.531v.707h-1.844v-2.407h2.357v.75h.518v-1.612h-.531v.287h-4.519v.531h1.081v5.582h-1.08v.531zm9.344-6.069v-.575h-2.894v.575h1.094v4.113l-4.044-4.688H156.6v.575h1.013l.287.375v5.163h-1.081v.531h2.887v-.531h-1.087v-4.238l4.168 4.888h.432v-6.188zm6.781 5.782V67.6h-.518v.738a3.044 3.044 0 0 1-1.525.475 2.825 2.825 0 0 1-2.75-3.007 2.613 2.613 0 0 1 2.55-2.806 2.65 2.65 0 0 1 1.725.625v.487h.518v-1.73h-.518v.443a3.506 3.506 0 0 0-1.7-.431c-2.244 0-3.807 1.456-3.807 3.525s1.563 3.493 3.75 3.493a5.094 5.094 0 0 0 2.288-.475m6.75.288v-1.337h-.531v.762h-2.444v-2.519h1.837v.725h.532v-2h-.532v.707h-1.837v-2.407h2.356v.75h.519v-1.612h-.531v.287h-4.52v.531h1.082v5.582h-1.081v.531zM183.9 67.5c0-.931-.35-1.394-1.588-2.081l-1.018-.625c-.488-.281-.625-.488-.625-.856a.988.988 0 0 1 1.125-.97c.43.008.848.138 1.206.376v.718h.531v-1.68H183v.362a2.575 2.575 0 0 0-1.306-.331 1.944 1.944 0 0 0-2.056 1.874c0 .85.43 1.357 1.693 1.988 1.263.631 1.582.981 1.582 1.525 0 .544-.513.963-1.25.963a2.669 2.669 0 0 1-1.47-.476V67.5h-.53v1.8h.53v-.375c.49.3 1.051.465 1.626.475a1.956 1.956 0 0 0 2.087-1.875"/></g></svg>
